<svg width="24" height="24" viewBox="0 0 24 24" fill="none" xmlns="http://www.w3.org/2000/svg">
<rect width="24" height="24" fill="#E5E5E5"/>
<g id="Desktop_1110">
<g clip-path="url(#clip0_0_1)">
<rect x="-627" y="-2968" width="1440" height="3038" fill="white"/>
<g id="footer">
<rect id="Rectangle 69" x="-627" y="-28" width="1440" height="80" fill="#2E2B44"/>
<g id="Group 199">
<g id="Group 203">
<g id="Frame" clip-path="url(#clip1_0_1)">
<path id="Vector" d="M15.402 21V14.034H17.735L18.084 11.326H15.402V9.598C15.402 8.814 15.62 8.279 16.744 8.279H18.178V5.857C17.4838 5.78334 16.7861 5.74762 16.088 5.75C14.021 5.75 12.606 7.012 12.606 9.33V11.326H10.268V14.034H12.606V21H4C3.73478 21 3.48043 20.8946 3.29289 20.7071C3.10536 20.5196 3 20.2652 3 20V4C3 3.73478 3.10536 3.48043 3.29289 3.29289C3.48043 3.10536 3.73478 3 4 3H20C20.2652 3 20.5196 3.10536 20.7071 3.29289C20.8946 3.48043 21 3.73478 21 4V20C21 20.2652 20.8946 20.5196 20.7071 20.7071C20.5196 20.8946 20.2652 21 20 21H15.402Z" fill="white"/>
</g>
</g>
</g>
</g>
</g>
<rect x="-626.5" y="-2967.5" width="1439" height="3037" stroke="black"/>
</g>
<defs>
<clipPath id="clip0_0_1">
<rect x="-627" y="-2968" width="1440" height="3038" fill="white"/>
</clipPath>
<clipPath id="clip1_0_1">
<rect width="24" height="24" fill="white"/>
</clipPath>
</defs>
</svg>
